# Blender v2.77 (sub 0) OBJ File: 'Aircraft Models American Champion.blend'
# www.blender.org
mtllib CH7A.mtl
o CH7A_Circle.005
v -0.798784 0.312233 -0.262404
v -0.798784 0.515784 -0.082060
v -0.798784 0.461027 0.183336
v -0.798784 0.202720 0.268389
v -0.798784 0.000000 0.088045
v -0.798784 0.053926 -0.177351
v -0.388730 0.457538 1.025072
v -0.088481 1.578210 -1.037641
v -0.125131 1.491556 -1.055520
v -0.088481 1.404902 -1.073398
v -0.018753 1.522484 -1.112615
v -0.026521 1.504118 -1.116404
v -0.018753 1.485752 -1.120193
v -0.269695 1.542871 -0.861892
v -0.429449 1.332345 -0.905328
v -0.413822 1.008899 -0.972062
v -0.283188 1.496137 -0.202624
v -0.445071 1.194396 -0.264880
v -0.416935 0.763479 -0.353787
v -0.209838 0.937100 3.048649
v -0.296756 0.705830 3.011246
v -0.209838 0.474561 2.973844
v -0.430227 0.946125 1.058460
v -0.345253 1.934036 0.450724
v -0.124572 0.752034 3.939236
v -0.176172 0.561118 3.908360
v -0.124572 0.370203 3.877483
v -0.056887 0.403963 5.044452
v -0.080450 0.369323 5.040397
v -0.410922 0.626459 0.177910
v -0.406999 1.824499 0.345232
v -0.453889 1.076030 0.270666
v -0.363963 0.775367 2.024223
v -0.339085 0.412971 1.949453
v -0.379534 1.546055 1.847210
v -0.035142 0.825811 4.068312
v -0.016468 0.443659 5.301706
v 0.025711 1.053100 4.217917
v 0.016277 1.510552 4.609093
v -0.006842 1.647870 4.841919
v -0.005108 1.540193 5.206045
v -0.223739 1.394235 -1.021697
v -0.316415 1.480889 -1.003819
v -0.223739 1.567543 -0.985940
v -4.656446 1.546055 1.847210
v -5.128047 1.934767 0.447183
v -5.128047 2.045896 0.470111
v -4.656446 1.648074 1.868259
v -5.318292 1.712726 1.330399
v -5.349999 1.904803 0.592411
v -5.349999 2.015932 0.615340
v -5.318292 1.814745 1.351447
v -0.142599 0.559373 4.012416
v -0.201665 0.514545 4.007168
v -1.571555 0.401842 4.882784
v -1.571555 0.436481 4.886840
v -1.571555 0.474323 4.424634
v -1.571555 0.429496 4.419385
v -0.671007 2.148705 -0.919936
v -0.948946 1.491556 -1.055520
v -0.671006 0.834407 -1.191104
v -0.671006 0.838464 -1.210768
v -0.671006 2.152762 -0.939600
v -0.948946 1.495613 -1.075184
v -0.612754 0.895514 -1.198998
v -0.866565 1.495613 -1.075184
v -0.612754 0.891456 -1.179333
v -0.612754 2.091655 -0.931706
v -0.612754 2.095712 -0.951371
v -0.866565 1.491556 -1.055520
v -0.827251 0.526854 4.170029
v -0.844430 0.482026 4.164781
v -0.814221 0.403963 5.044452
v -0.826003 0.369323 5.040397
v 0.012684 0.741760 5.335278
v 0.008897 1.307502 5.318532
v 0.388731 0.457538 1.025072
v 0.000000 1.614103 -1.030236
v 0.088482 1.578210 -1.037641
v 0.125132 1.491556 -1.055520
v 0.088482 1.404902 -1.073398
v 0.000000 1.369009 -1.080804
v 0.000000 1.530091 -1.111045
v 0.018753 1.522484 -1.112615
v 0.026521 1.504118 -1.116404
v 0.018753 1.485752 -1.120193
v 0.000000 1.478145 -1.121763
v 0.000000 1.630073 -0.843900
v 0.269696 1.542871 -0.861892
v 0.429450 1.332345 -0.905328
v 0.413823 1.008899 -0.972062
v 0.000000 1.012974 -0.971221
v 0.000000 1.621121 -0.176837
v 0.283189 1.496137 -0.202624
v 0.445072 1.194396 -0.264880
v 0.416936 0.763479 -0.353788
v 0.000001 1.032894 3.064142
v 0.209840 0.937100 3.048649
v 0.296758 0.705830 3.011246
v 0.209840 0.474561 2.973844
v 0.430228 0.946125 1.058459
v 0.345254 1.934036 0.450724
v 0.000000 2.045165 0.473653
v 0.000001 0.831113 3.952025
v 0.124575 0.752034 3.939236
v 0.176175 0.561118 3.908360
v 0.124575 0.370203 3.877483
v 0.000001 0.348713 3.876576
v 0.056890 0.403963 5.044452
v 0.080453 0.369323 5.040397
v 0.410924 0.626459 0.177910
v 0.407000 1.824499 0.345232
v 0.000001 0.603561 0.173186
v 0.453890 1.076030 0.270666
v 0.000000 1.955383 0.372236
v 0.363965 0.775367 2.024223
v 0.000001 1.648074 1.868259
v 0.339087 0.412971 1.949453
v 0.379535 1.546055 1.847210
v 0.035144 0.825811 4.068312
v 0.016471 0.443659 5.301706
v -0.025709 1.053100 4.217917
v -0.016275 1.510552 4.609093
v 0.006844 1.647870 4.841919
v 0.005110 1.540193 5.206045
v 0.223739 1.394235 -1.021697
v 0.316415 1.480889 -1.003819
v 0.223739 1.567543 -0.985940
v 0.000000 1.603436 -0.978535
v 0.000000 1.358342 -1.029103
v 4.656447 1.546057 1.847208
v 5.128048 1.934769 0.447181
v 5.128048 2.045898 0.470110
v 4.656447 1.648077 1.868257
v 5.318294 1.712729 1.330397
v 5.350001 1.904805 0.592409
v 5.350001 2.015934 0.615338
v 5.318294 1.814748 1.351446
v 0.142601 0.559373 4.012416
v 0.201667 0.514545 4.007168
v 1.571558 0.401842 4.882783
v 1.571558 0.436482 4.886839
v 1.571557 0.474324 4.424633
v 1.571557 0.429497 4.419384
v 0.671007 2.148705 -0.919936
v -0.000000 2.420905 -0.863775
v 0.948947 1.491556 -1.055520
v 0.671007 0.834407 -1.191104
v 0.000000 0.562207 -1.247265
v 0.671007 0.838464 -1.210769
v 0.671007 2.152762 -0.939600
v 0.000000 0.566264 -1.266929
v 0.948947 1.495613 -1.075185
v -0.000000 2.424962 -0.883439
v 0.000000 0.642887 -1.230618
v 0.612754 0.895514 -1.198998
v 0.866565 1.495613 -1.075185
v 0.612754 0.891457 -1.179334
v 0.612754 2.091655 -0.931706
v -0.000000 2.340225 -0.880421
v 0.612754 2.095713 -0.951371
v -0.000000 2.344282 -0.900085
v 0.866565 1.491556 -1.055520
v 0.000000 0.646945 -1.250283
v 0.827253 0.526854 4.170029
v 0.844432 0.482027 4.164781
v 0.814224 0.403963 5.044452
v 0.826005 0.369323 5.040397
v -0.012681 0.741760 5.335278
v -0.008895 1.307502 5.318532
v -0.016468 0.314180 5.065754
v 0.016471 0.314180 5.065754
v -0.016468 0.226403 4.973086
v 0.016471 0.226403 4.973086
v 0.798783 0.312233 -0.262404
v 0.798784 0.515784 -0.082060
v 0.798784 0.461027 0.183336
v 0.798784 0.202720 0.268389
v 0.798784 0.000000 0.088045
v 0.798784 0.053926 -0.177351
v -0.968681 0.312233 -0.262404
v -0.968680 0.515784 -0.082060
v -0.968680 0.461027 0.183336
v -0.968680 0.202720 0.268389
v -0.968680 0.000000 0.088045
v -0.968680 0.053926 -0.177351
v 0.968680 0.312233 -0.262404
v 0.968680 0.515784 -0.082060
v 0.968680 0.461027 0.183336
v 0.968680 0.202720 0.268389
v 0.968680 0.000000 0.088045
v 0.968680 0.053926 -0.177351
v -0.021980 0.120205 4.815568
v -0.021980 0.197280 4.883856
v -0.021980 0.176546 4.984349
v -0.021980 0.078737 5.016555
v -0.021980 0.000000 4.948267
v -0.021980 0.022395 4.847774
v -0.798784 0.263492 -0.026164
v -0.798784 0.285854 -0.006351
v -0.798784 0.279839 0.022805
v -0.798784 0.251461 0.032149
v -0.798784 0.229099 0.012337
v -0.798784 0.235114 -0.016820
v 0.798783 0.263492 -0.026164
v 0.798784 0.285854 -0.006351
v 0.798784 0.279839 0.022805
v 0.798784 0.251461 0.032149
v 0.798784 0.229099 0.012336
v 0.798784 0.235114 -0.016820
v -0.280128 0.651724 0.053937
v -0.306022 0.648716 0.068515
v -0.306022 0.642701 0.097672
v -0.280128 0.639693 0.112250
v -0.254235 0.642701 0.097672
v -0.254235 0.648716 0.068515
v 0.280128 0.651724 0.053936
v 0.306021 0.648716 0.068515
v 0.306021 0.642701 0.097672
v 0.280128 0.639693 0.112250
v 0.254234 0.642701 0.097671
v 0.254234 0.648716 0.068515
v -0.000000 0.631583 0.064980
v -0.000000 0.625567 0.094137
v 0.000000 0.763479 -0.353787
v 0.021981 0.120205 4.815568
v 0.021981 0.197280 4.883856
v 0.021981 0.176546 4.984349
v 0.021981 0.078737 5.016555
v 0.021981 0.000000 4.948267
v 0.021981 0.022395 4.847774
v -0.021980 0.232893 4.833259
v -0.021981 0.235892 4.761181
v 0.021981 0.232893 4.833259
v 0.021980 0.235892 4.761181
vn -1.000000 0.000000 0.000000
vn 0.999200 0.034300 0.020200
vn 0.038800 0.964500 0.261300
vn -0.045900 -0.966400 -0.252900
vn -0.999700 0.021700 0.011200
vn -0.041100 0.964300 0.261800
vn 0.045900 -0.966400 -0.252800
vn 0.355900 -0.619700 0.699500
vn -0.417500 0.681700 -0.600900
vn -0.355900 -0.292300 -0.887700
vn 0.350800 0.292900 0.889500
vn 0.419300 -0.382100 -0.823500
vn -0.350800 0.292900 0.889500
vn -0.355900 -0.619700 0.699500
vn 0.350800 0.621000 -0.700900
vn 1.000000 -0.000000 -0.000000
vn 0.000000 -0.963500 -0.267600
vn 0.999900 0.008000 0.013400
vn 0.006500 0.989400 0.144800
vn -0.999900 0.008000 0.013400
vn 0.999700 0.021700 0.011200
vn 0.041100 0.964300 0.261800
vn -0.033200 -0.967600 -0.250400
vn -0.999600 0.018500 0.019000
vn 0.006600 -0.994500 -0.104300
vn -0.006600 -0.994500 -0.104300
vn 0.000000 -0.202100 0.979400
vn 0.000000 0.202100 -0.979400
vn -0.612800 -0.773900 -0.159700
vn 0.000000 0.961800 0.273800
vn 0.005500 0.992800 0.119400
vn -0.007900 -0.990900 -0.134500
vn -0.999200 0.034300 0.020200
vn 0.612800 -0.773900 -0.159700
vn -0.038800 0.964500 0.261300
vn 0.033200 -0.967600 -0.250400
vn -0.005500 0.992800 0.119400
vn 0.601000 0.782800 0.161500
vn 0.007900 -0.990900 -0.134500
vn -0.006500 0.989400 0.144800
vn 0.419300 -0.676800 0.605100
vn -0.350800 0.621000 -0.700900
vn -0.419300 -0.382100 -0.823500
vn 0.417500 0.388200 0.821600
vn 0.355900 -0.292300 -0.887700
vn -0.417500 0.388200 0.821600
vn -0.419300 -0.676800 0.605100
vn 0.417500 0.681700 -0.600900
vn -0.601000 0.782800 0.161500
vn 0.999600 0.018500 0.019000
vn 0.000000 0.817700 0.575600
vn 0.000000 -0.425500 -0.905000
vn -0.338800 0.190100 -0.921400
vn -0.239600 0.424800 -0.873000
vn -0.239600 -0.044500 -0.969800
vn -0.269500 -0.064000 -0.960800
vn -0.896800 0.246800 -0.367300
vn -0.668100 0.350400 -0.656400
vn -0.605000 0.796200 -0.000900
vn -0.421000 0.760600 -0.494200
vn -0.999200 -0.009800 0.038300
vn -0.814700 0.493400 -0.304700
vn -0.999300 0.022000 -0.029200
vn -0.684600 -0.713500 -0.149400
vn 0.004200 -0.973200 -0.229600
vn 0.664400 -0.745000 -0.059600
vn -0.667800 -0.742000 -0.057700
vn -0.810500 0.528000 0.253400
vn -0.714700 0.684100 -0.145300
vn 0.000000 0.997900 0.064400
vn -0.762600 0.582300 0.281600
vn -0.596700 -0.415500 0.686400
vn -0.411300 0.184200 -0.892700
vn -0.329500 0.756800 -0.564400
vn 0.000000 -0.599700 -0.800200
vn -0.329500 -0.471600 -0.817900
vn 0.000000 -0.791200 -0.611600
vn 0.000000 1.000000 0.004200
vn 0.000000 0.968600 -0.248500
vn -0.993900 0.079100 0.077100
vn -0.738400 0.660800 0.134000
vn -0.464100 0.176100 -0.868100
vn -0.215400 0.799200 -0.561100
vn 0.000000 0.960400 -0.278600
vn -0.252600 0.445600 0.858800
vn -0.710300 -0.140000 0.689800
vn 0.000000 0.893100 0.449900
vn -0.848400 -0.161100 -0.504300
vn -0.196800 0.802500 -0.563200
vn 0.338800 0.190100 -0.921400
vn 0.239600 -0.044500 -0.969800
vn 0.239600 0.424800 -0.873000
vn 0.269500 -0.064000 -0.960800
vn 0.896800 0.246800 -0.367300
vn 0.598400 -0.470400 -0.648500
vn 0.668100 0.350400 -0.656400
vn 0.605000 0.796200 -0.000900
vn 0.814700 0.493400 -0.304700
vn 0.999200 -0.009800 0.038300
vn 0.999300 0.022000 -0.029200
vn 0.691200 -0.706100 -0.153500
vn 0.615600 -0.787200 0.035000
vn 0.637700 -0.766900 -0.072100
vn 0.035000 -0.991800 -0.123100
vn 0.710300 -0.140000 0.689800
vn 0.994500 -0.049900 0.091400
vn 0.810500 0.528000 0.253400
vn 0.714700 0.684100 -0.145300
vn 0.000000 1.000000 -0.004900
vn 0.329500 -0.471600 -0.817900
vn 0.329500 0.756800 -0.564400
vn 0.421000 0.760600 -0.494200
vn 0.411300 0.184200 -0.892700
vn 0.596700 -0.415500 0.686400
vn 0.762600 0.582300 0.281600
vn 0.993900 0.079100 0.077100
vn 0.738400 0.660800 0.134000
vn 0.848400 -0.161100 -0.504300
vn 0.215400 0.799200 -0.561100
vn 0.464100 0.176100 -0.868100
vn 0.252600 0.445600 0.858800
vn 0.196800 0.802500 -0.563200
vn 0.217300 -0.579800 -0.785200
vn -0.602900 -0.793400 -0.084000
vn 0.653600 -0.536900 0.533500
vn -0.653600 -0.536900 0.533500
vn -0.460200 -0.840100 0.286900
vn -0.987400 0.020500 0.156700
vn -0.375800 -0.745800 0.550000
vn 0.375800 -0.745800 0.550000
vn 0.460200 -0.840100 0.286800
vn 0.987400 0.020500 0.156700
vn 0.616700 0.601500 0.507700
vn 0.614300 0.784200 -0.086800
vn -0.614300 0.784200 -0.086800
vn -0.616700 0.601500 0.507700
vn 0.638900 -0.382000 -0.667700
vn 0.674900 -0.697800 -0.239800
vn -0.638900 -0.382000 -0.667700
vn -0.674900 -0.697800 -0.239800
vn -0.628900 -0.644000 0.435500
vn 0.084500 -0.981700 0.170400
vn 0.122000 -0.771300 -0.624600
vn -0.122000 -0.771300 -0.624600
vn 0.628900 -0.644000 0.435500
vn -0.084500 -0.981700 0.170400
vn -0.175200 -0.974200 -0.142200
vn 0.175200 -0.974200 -0.142200
vn 0.195200 -0.925000 -0.325900
vn -0.195200 -0.925000 -0.325900
vn -0.840300 -0.440300 -0.316200
vn 0.813700 -0.472100 -0.338900
vn 0.685200 -0.020200 0.728000
vn -0.685200 -0.020200 0.728000
vn 0.000000 0.522000 -0.853000
vn -0.598400 -0.470400 -0.648500
vn -0.994500 -0.049900 0.091400
vn -0.652500 -0.756200 0.048200
vn -0.626300 -0.778800 0.033800
vn -0.992500 -0.034700 0.117400
vn 0.986800 0.156500 -0.040900
vn 0.724700 0.669000 -0.164800
vn 0.782400 0.563200 0.265700
vn 0.000000 0.929900 0.367700
vn 0.652500 -0.756200 0.048200
vn 0.992500 -0.034700 0.117400
vn 0.064500 0.591500 0.803600
vn 0.087300 -0.760600 0.643400
vn -0.782400 0.563200 0.265700
vn 0.651300 0.656500 -0.380400
vn 0.657700 -0.533600 -0.531600
vn 0.000000 0.953900 -0.300200
vn 0.000000 0.790600 -0.612300
vn -0.673300 0.574400 -0.465400
vn 0.673300 0.574400 -0.465400
vn 0.715500 -0.670700 0.195400
vn 0.682100 0.538600 0.494600
vn 0.264500 -0.791900 0.550400
vn -0.609800 0.591600 0.527400
vn 0.609800 0.591600 0.527400
vn 0.609800 0.752000 -0.250200
vn -0.609800 0.752000 -0.250200
vn 0.640100 -0.623800 0.448400
vn 0.616900 0.542600 0.570000
vn 0.000000 -0.744600 0.667500
vn 0.420300 -0.574100 0.702700
vn 0.420300 -0.249100 -0.872500
vn 0.000000 -0.419600 -0.907700
vn 0.776400 0.127300 -0.617200
vn 0.776400 -0.127400 0.617200
vn 0.549000 -0.665000 0.506300
vn 0.549000 -0.410300 -0.728200
vn 0.420300 0.574100 -0.702700
vn 0.420300 0.249100 0.872500
vn 0.000000 0.419600 0.907700
vn 0.000000 0.744600 -0.667500
vn 0.594300 0.162500 -0.787600
vn 0.594300 -0.162500 0.787600
vn 0.549000 0.665000 -0.506300
vn 0.000000 0.887700 -0.460400
vn 0.000000 0.633000 0.774100
vn 0.549000 0.410300 0.728200
vn 0.000000 -0.887700 0.460400
vn -0.549000 -0.665000 0.506300
vn -0.549000 -0.410300 -0.728200
vn 0.000000 -0.633000 -0.774100
vn -0.226700 -0.463600 -0.856500
vn -0.264500 -0.791900 0.550400
vn -0.217300 -0.579800 -0.785200
vn -0.658300 0.184300 0.729800
vn 0.658300 0.184300 0.729800
vn 0.000000 -0.945800 -0.324700
vn 0.000000 -0.616000 -0.787700
vn 0.000000 -0.141700 -0.989900
vn -0.724700 0.669000 -0.164800
vn -0.986800 0.156500 -0.040900
vn 0.000000 -0.970900 -0.239500
vn -0.692600 0.444900 -0.567700
vn 0.692600 0.444900 -0.567700
vn -0.715500 -0.670700 0.195400
vn -0.682100 0.538600 0.494600
vn -0.692600 0.692800 -0.200500
vn -0.715200 -0.501800 -0.486400
vn -0.420300 -0.249100 -0.872500
vn -0.594300 0.162500 -0.787600
vn -0.594300 -0.162500 0.787600
vn -0.420300 -0.574100 0.702700
vn -0.776400 -0.127400 0.617200
vn -0.776400 0.127300 -0.617200
vn 0.000000 -0.971900 -0.235300
vn -0.549000 0.410300 0.728200
vn -0.549000 0.665000 -0.506300
vn -0.420300 0.574100 -0.702700
vn -0.420300 0.249100 0.872500
vn 0.226700 -0.463600 -0.856500
vn -0.087300 -0.760600 0.643400
vn -0.064500 0.591500 0.803600
vn -0.616900 0.542600 0.570000
vn -0.640100 -0.623800 0.448400
vn 0.715200 -0.501800 -0.486400
vn 0.692600 0.692800 -0.200500
vn -0.610300 0.160100 -0.775800
vn 0.610300 0.160100 -0.775800
vn 0.609600 -0.592500 -0.526600
vn -0.609600 -0.592500 -0.526600
vn -0.651300 0.656500 -0.380400
vn -0.657700 -0.533600 -0.531600
vn -0.610200 -0.751600 0.250400
vn 0.610200 -0.751600 0.250400
vn -0.610100 -0.160900 0.775800
vn 0.610100 -0.160900 0.775800
vn 0.607900 -0.754000 0.248600
vn -0.607900 -0.754000 0.248600
vn -0.611000 -0.586700 -0.531400
vn 0.611000 -0.586700 -0.531400
vn 0.611000 -0.155800 0.776100
vn -0.611000 -0.155800 0.776100
vn 0.755900 0.600800 0.260000
vn -0.755900 0.600800 0.260000
vn 0.721000 -0.256200 -0.643800
vn -0.721000 -0.256200 -0.643800
usemtl None
s off
f 185//1 184//1 183//1 181//1
f 124//2 76//2 39//2
f 47//3 52//3 48//3
f 49//4 46//4 45//4
f 40//5 170//5 41//5
f 133//6 138//6 137//6
f 132//7 135//7 131//7
f 181//1 183//1 182//1
f 185//1 181//1 186//1
f 203//8 214//8 202//8
f 199//9 212//9 211//9
f 210//10 217//10 205//10
f 219//11 208//11 207//11
f 204//12 211//12 216//12
f 202//13 213//13 201//13
f 220//14 209//14 208//14
f 205//15 218//15 206//15
f 196//1 198//1 197//1
f 231//16 229//16 230//16
f 194//1 196//1 195//1
f 193//1 232//1 233//1
f 226//16 234//16 227//16
f 24//17 35//17 45//17 46//17
f 75//18 38//18 39//18 76//18
f 165//19 139//19 109//19 167//19
f 169//20 170//20 123//20 122//20
f 124//21 125//21 76//21
f 47//22 51//22 52//22
f 49//23 50//23 46//23
f 122//24 36//24 37//24 169//24
f 58//25 72//25 74//25 55//25
f 144//26 141//26 168//26 166//26
f 61//27 67//27 70//27 60//27
f 154//28 162//28 69//28 63//28
f 65//28 164//28 152//28 62//28
f 150//28 156//28 157//28 153//28
f 63//28 69//28 66//28 64//28
f 154//28 151//28 161//28 162//28
f 66//28 65//28 62//28 64//28
f 222//29 210//29 209//29 221//29
f 131//17 119//17 102//17 132//17
f 103//30 117//30 134//30 133//30
f 152//28 164//28 156//28 150//28
f 145//27 159//27 163//27 147//27
f 48//30 117//30 103//30 47//30
f 143//31 165//31 167//31 142//31
f 203//16 202//16 4//16 5//16
f 200//16 2//16 3//16 201//16
f 194//1 193//1 198//1 196//1
f 166//32 168//32 110//32 140//32
f 40//33 123//33 170//33
f 215//34 203//34 204//34 216//34
f 133//35 134//35 138//35
f 132//36 136//36 135//36
f 73//37 71//37 57//37 56//37
f 70//27 68//27 59//27 60//27
f 149//27 148//27 158//27 155//27
f 149//27 155//27 67//27 61//27
f 148//27 147//27 163//27 158//27
f 219//38 207//38 206//38 218//38
f 191//16 187//16 188//16 190//16
f 151//28 153//28 157//28 161//28
f 68//27 160//27 146//27 59//27
f 146//27 160//27 159//27 145//27
f 72//39 54//39 29//39 74//39
f 28//40 53//40 71//40 73//40
f 188//16 189//16 190//16
f 191//16 192//16 187//16
f 175//1 180//1 210//1 205//1
f 177//1 176//1 206//1 207//1
f 204//16 203//16 5//16 6//16
f 200//16 199//16 1//16 2//16
f 210//1 180//1 179//1 209//1
f 178//1 177//1 207//1 208//1
f 204//16 6//16 1//16 199//16
f 209//1 179//1 178//1 208//1
f 206//1 176//1 175//1 205//1
f 201//16 3//16 4//16 202//16
f 203//41 215//41 214//41
f 199//42 200//42 212//42
f 210//43 222//43 217//43
f 219//44 220//44 208//44
f 204//45 199//45 211//45
f 202//46 214//46 213//46
f 220//47 221//47 209//47
f 205//48 217//48 218//48
f 212//49 200//49 201//49 213//49
f 38//50 75//50 121//50 120//50
f 232//51 194//51 227//51 234//51
f 235//52 226//52 193//52 233//52
f 227//16 229//16 231//16 226//16
f 227//16 228//16 229//16
f 193//1 194//1 232//1
f 226//16 235//16 234//16
s 1
f 12//53 11//54 13//55
f 42//56 15//57 43//58
f 43//58 14//59 44//60
f 23//61 31//62 32//63
f 30//64 113//65 77//66 7//67
f 25//68 36//69 104//70
f 28//71 37//72 36//69
f 9//73 44//60 8//74
f 130//75 10//76 82//77
f 8//74 129//78 78//79
f 42//56 9//73 10//76
f 26//80 53//81 25//68
f 24//82 47//83 103//84
f 48//85 35//86 117//87
f 54//88 71//89 53//81
f 85//90 86//91 84//92
f 126//93 90//94 91//95
f 127//96 89//97 90//94
f 112//98 101//99 114//100
f 113//65 111//101 77//66
f 100//102 107//103 108//104
f 101//99 119//105 116//106
f 105//107 104//70 120//108
f 88//109 129//78 44//60 14//59
f 81//110 130//75 82//77
f 79//111 129//78 128//112
f 80//113 126//93 81//110
f 120//108 121//114 109//115
f 106//116 139//117 140//118
f 133//119 102//120 103//84
f 119//105 134//121 117//87
f 140//118 165//122 166//123
f 36//69 53//81 28//71
f 139//117 120//108 109//115
f 53//81 36//69 25//68
f 139//117 105//107 120//108
f 106//116 140//118 107//103
f 26//80 27//124 54//88
f 36//69 120//108 104//70
f 109//115 121//114 110//125
f 28//71 29//126 37//72
f 173//127 29//126 232//128
f 29//126 171//129 37//72
f 172//130 110//125 121//114
f 174//131 234//132 110//125
f 110//125 107//103 140//118
f 29//126 54//88 27//124
f 125//133 124//134 40//135 41//136
f 111//101 218//137 96//138
f 212//139 30//64 19//140
f 213//141 214//142 30//64
f 212//139 19//140 211//143
f 218//137 217//144 96//138
f 219//145 111//101 220//146
f 111//101 113//65 220//146
f 30//64 214//142 113//65
f 113//65 221//147 220//146
f 215//148 113//65 214//142
f 216//149 211//143 19//140
f 222//150 96//138 217//144
f 29//126 233//151 232//128
f 110//125 235//152 107//103
f 107//103 235//152 108//104
f 37//72 121//114 75//153 169//154
f 85//90 80//113 81//110 86//91
f 11//54 8//74 78//79 83//155
f 42//56 16//156 15//57
f 88//109 89//97 128//112 129//78
f 33//157 34//158 22//159 21//160
f 43//58 15//57 14//59
f 95//161 90//94 89//97 94//162
f 95//161 96//138 91//95 90//94
f 105//107 98//163 97//164 104//70
f 100//102 118//165 116//106 99//166
f 97//164 98//163 119//105 117//87
f 98//163 99//166 116//106 119//105
f 102//120 119//105 101//99 112//98
f 167//167 109//115 110//125 168//168
f 106//116 107//103 100//102 99//166
f 20//169 21//160 26//80 25//68
f 106//116 99//166 98//163 105//107
f 143//170 144//171 166//123 165//122
f 7//67 77//66 118//165 34//158
f 112//98 94//162 93//172 115//173
f 114//100 95//161 94//162 112//98
f 23//61 33//157 35//86
f 118//165 77//66 101//99 116//106
f 123//174 40//135 124//134 39//175
f 127//96 126//93 80//113 128//112
f 130//75 42//56 10//76
f 8//74 44//60 129//78
f 101//99 77//66 111//101 114//100
f 135//176 138//177 134//121 131//178
f 183//179 3//180 2//181 182//182
f 26//80 54//88 53//81
f 141//183 144//171 143//170 142//184
f 142//184 167//167 168//168 141//183
f 160//185 68//186 69//187 162//188
f 153//189 147//190 148//191 150//192
f 65//193 67//194 155//195 164//196
f 67//194 65//193 66//197 70//198
f 102//120 112//98 115//173 103//84
f 151//199 154//200 146//201 145//202
f 84//92 83//155 78//79 79//111
f 151//199 145//202 147//190 153//189
f 149//203 61//204 62//205 152//206
f 24//82 46//207 47//83
f 48//85 45//208 35//86
f 23//61 35//86 24//82 31//62
f 97//164 117//87 35//86 20//169
f 100//102 22//159 34//158 118//165
f 54//88 72//209 71//89
f 173//127 232//128 234//132 174//131
f 170//210 169//154 75//153 76//211
f 225//212 92//213 91//95 96//138
f 82//77 10//76 13//55 87//214
f 12//53 9//73 8//74 11//54
f 10//76 9//73 12//53 13//55
f 87//214 83//155 84//92 86//91
f 126//93 127//96 90//94
f 42//56 130//75 92//213 16//156
f 127//96 128//112 89//97
f 94//162 89//97 88//109 93//172
f 88//109 14//59 17//215 93//172
f 14//59 15//57 18//216 17//215
f 115//173 31//62 24//82 103//84
f 23//61 32//63 30//64 7//67
f 26//80 21//160 22//159 27//124
f 97//164 20//169 25//68 104//70
f 23//61 7//67 34//158 33//157
f 32//63 18//216 19//140 30//64
f 225//212 223//217 216//149 19//140
f 170//210 76//211 125//133 41//136
f 18//216 15//57 16//156 19//140
f 42//56 43//58 44//60 9//73
f 122//218 123//174 39//175 38//219
f 80//113 79//111 128//112
f 81//110 126//93 130//75
f 79//111 78//79 129//78
f 49//220 45//208 48//85 52//221
f 36//69 122//218 38//219 120//108
f 52//221 51//222 50//223 49//220
f 22//159 100//102 108//104 27//124
f 106//116 105//107 139//117
f 114//100 111//101 96//138 95//161
f 85//90 84//92 79//111 80//113
f 93//172 17//215 31//62 115//173
f 161//224 157//225 163//226 159//227
f 61//204 60//228 64//229 62//205
f 87//214 13//55 11//54 83//155
f 221//147 224//230 223//217 222//150
f 86//91 81//110 82//77 87//214
f 150//192 148//191 149//203 152//206
f 59//231 146//201 154//200 63//232
f 163//226 157//225 156//233 158//234
f 133//119 132//235 102//120
f 119//105 131//178 134//121
f 74//236 73//237 56//238 55//239
f 235//152 233//151 27//124 108//104
f 29//126 28//71 73//237 74//236
f 140//118 139//117 165//122
f 138//177 135//176 136//240 137//241
f 174//131 172//130 171//129 173//127
f 181//242 1//243 6//244 186//245
f 29//126 173//127 171//129
f 172//130 174//131 110//125
f 57//246 58//247 55//239 56//238
f 137//241 136//240 132//235 133//119
f 179//248 180//245 192//244 191//249
f 186//245 6//244 5//249 185//248
f 176//182 177//179 189//180 188//181
f 184//250 4//251 3//180 183//179
f 189//180 177//179 178//250 190//251
f 182//182 2//181 1//243 181//242
f 184//250 185//248 5//249 4//251
f 224//230 215//148 216//149 223//217
f 178//250 179//248 191//249 190//251
f 235//152 233//151 232//128 234//132
f 230//252 197//253 198//254 231//255
f 57//246 71//89 72//209 58//247
f 17//215 18//216 32//63 31//62
f 20//169 35//86 33//157 21//160
f 60//228 59//231 63//232 64//229
f 162//188 161//224 159//227 160//185
f 155//195 158//234 156//233 164//196
f 68//186 70//198 66//197 69//187
f 111//101 219//145 218//137
f 212//139 213//141 30//64
f 230//252 229//256 196//257 197//253
f 113//65 224//230 221//147
f 215//148 224//230 113//65
f 16//156 92//213 225//212 19//140
f 225//212 96//138 222//150 223//217
f 228//180 195//179 196//257 229//256
f 172//130 121//114 37//72 171//129
f 227//258 194//259 195//179 228//180
f 226//260 231//255 198//254 193//261
f 92//213 130//75 126//93 91//95
f 187//243 175//242 176//182 188//181
f 180//245 175//242 187//243 192//244
f 29//126 27//124 233//151
f 110//125 234//132 235//152
f 51//222 47//83 46//207 50//223
