# Blender v2.77 (sub 0) OBJ File: 'Aircraft Models American Champion.blend'
# www.blender.org
mtllib CH7B.mtl
o CH7B_Circle.008
v -0.732689 0.318853 -0.249973
v -0.732689 0.451104 -0.066545
v -0.732689 0.346094 0.428130
v -0.732689 0.123447 0.676289
v -0.732689 -0.000000 0.361198
v -0.732689 0.101788 -0.148315
v -0.449171 0.398701 0.885577
v -0.088923 1.499539 -1.308071
v -0.125756 1.416167 -1.322211
v -0.088923 1.332796 -1.336350
v -0.018846 1.489829 -1.598788
v -0.026653 1.472159 -1.601784
v -0.018846 1.454489 -1.604781
v -0.271042 1.416624 -1.065393
v -0.431594 1.214073 -1.099745
v -0.415889 0.768025 -0.847720
v -0.284602 1.334700 -0.164201
v -0.447294 1.044389 -0.213437
v -0.419018 0.586964 -0.291016
v -0.283424 0.953637 2.869104
v -0.400822 0.697479 2.837433
v -0.283424 0.441322 2.805761
v -0.497121 0.931621 0.891577
v -0.346977 1.815664 0.445461
v -0.143851 0.740001 3.755423
v -0.203437 0.556304 3.732711
v -0.143851 0.372606 3.709998
v -0.057171 0.416239 4.800102
v -0.080852 0.369816 4.862873
v -0.412975 0.498311 0.339441
v -0.409031 1.710415 0.345414
v -0.456156 1.026466 0.262519
v -0.476506 0.765658 1.856036
v -0.443935 0.327461 1.824200
v -0.496891 1.439914 1.845895
v -0.035317 0.810794 3.880329
v -0.016550 0.449046 5.101315
v 0.016359 1.510536 4.364623
v -0.006876 1.666710 4.548083
v -0.005133 1.558839 5.118431
v -0.224856 1.307871 -1.211894
v -0.317995 1.391242 -1.197754
v -0.224856 1.474613 -1.183615
v -4.861485 1.439914 1.845895
v -4.866159 1.816373 0.441921
v -4.866159 1.923293 0.460054
v -4.861485 1.538068 1.862542
v -5.099998 1.520492 1.443554
v -5.084459 1.762001 0.713413
v -5.084459 1.868920 0.731546
v -5.099998 1.618646 1.460200
v -0.143311 0.508608 4.064834
v -0.202672 0.465472 4.061485
v -1.459499 0.351058 4.956536
v -1.459499 0.384390 4.959124
v -1.459499 0.408275 4.565810
v -1.459499 0.365139 4.562461
v -0.673623 2.031863 -1.135857
v -0.952647 1.400297 -1.242970
v -0.673623 0.768731 -1.350082
v -0.673623 0.775264 -1.382702
v -0.673623 2.038396 -1.168476
v -0.952647 1.406830 -1.275589
v -0.615143 0.830092 -1.373403
v -0.869944 1.406830 -1.275589
v -0.615143 0.823559 -1.340784
v -0.615143 1.977035 -1.145156
v -0.615143 1.983568 -1.177775
v -0.869944 1.400297 -1.242970
v -0.831382 0.471964 4.247800
v -0.848647 0.428828 4.244452
v -0.252262 0.352225 5.119731
v -0.255912 0.318892 5.117144
v 0.008942 1.264666 5.121368
v 0.449174 0.398701 0.885577
v 0.000001 1.534072 -1.302214
v 0.088924 1.499539 -1.308071
v 0.125757 1.416167 -1.322211
v 0.088924 1.332796 -1.336350
v 0.000001 1.298262 -1.342207
v 0.000001 1.497148 -1.597546
v 0.018847 1.489829 -1.598788
v 0.026654 1.472159 -1.601784
v 0.018847 1.454489 -1.604781
v 0.000001 1.447169 -1.606023
v 0.000001 1.500523 -1.051164
v 0.271043 1.416624 -1.065393
v 0.431595 1.214073 -1.099745
v 0.415891 0.768025 -0.847721
v 0.000001 0.771946 -0.847056
v 0.000001 1.454949 -0.143807
v 0.284604 1.334700 -0.164201
v 0.447296 1.044390 -0.213437
v 0.419019 0.586964 -0.291016
v 0.000001 1.059741 2.882223
v 0.283427 0.953637 2.869104
v 0.400825 0.697479 2.837433
v 0.283427 0.441322 2.805761
v 0.497123 0.931621 0.891576
v 0.346979 1.815664 0.445461
v 0.000001 1.922584 0.463595
v 0.000002 0.816091 3.764831
v 0.143854 0.740001 3.755423
v 0.203440 0.556304 3.732711
v 0.143854 0.372606 3.709998
v 0.000002 0.296516 3.700590
v 0.057174 0.416239 4.800102
v 0.080855 0.369816 4.862873
v 0.412977 0.498312 0.339441
v 0.409033 1.710415 0.345414
v 0.000001 0.476281 0.335705
v 0.456157 1.026466 0.262519
v 0.000001 1.836341 0.366770
v 0.476508 0.765659 1.856036
v 0.000001 1.538068 1.862542
v 0.443938 0.327461 1.824200
v 0.496894 1.439914 1.845895
v 0.035320 0.810794 3.880329
v 0.016553 0.449046 5.101315
v -0.016356 1.510536 4.364623
v 0.006879 1.666710 4.548083
v 0.005136 1.558839 5.118431
v 0.224857 1.307871 -1.211894
v 0.317996 1.391242 -1.197754
v 0.224857 1.474613 -1.183615
v 0.000001 1.509147 -1.177758
v 0.000001 1.273337 -1.217751
v 4.861486 1.439916 1.845894
v 4.866159 1.816376 0.441919
v 4.866159 1.923295 0.460052
v 4.861486 1.538070 1.862541
v 5.100001 1.520494 1.443552
v 5.084460 1.762003 0.713411
v 5.084460 1.868922 0.731544
v 5.100001 1.618649 1.460199
v 0.143314 0.508608 4.064834
v 0.202675 0.465472 4.061485
v 1.459503 0.351059 4.956535
v 1.459503 0.384391 4.959123
v 1.459503 0.408276 4.565809
v 1.459503 0.365140 4.562460
v 0.673624 2.031864 -1.135858
v 0.000000 2.293467 -1.091490
v 0.952648 1.400298 -1.242970
v 0.673624 0.768731 -1.350083
v 0.000000 0.507128 -1.394450
v 0.673624 0.775264 -1.382702
v 0.673624 2.038396 -1.168477
v 0.000000 0.513661 -1.427069
v 0.952648 1.406831 -1.275590
v 0.000000 2.299999 -1.124109
v 0.000000 0.584667 -1.381299
v 0.615145 0.830092 -1.373403
v 0.869945 1.406830 -1.275589
v 0.615145 0.823560 -1.340784
v 0.615144 1.977035 -1.145156
v 0.000000 2.215928 -1.104640
v 0.615144 1.983568 -1.177776
v 0.000000 2.222461 -1.137259
v 0.869946 1.400298 -1.242970
v 0.000000 0.591200 -1.413918
v 0.831386 0.471965 4.247800
v 0.848651 0.428829 4.244452
v 0.252266 0.352225 5.119731
v 0.255916 0.318893 5.117144
v -0.008939 1.264666 5.121368
v -0.016550 0.294133 5.097507
v 0.016553 0.294133 5.097507
v -0.016550 0.282803 4.806191
v 0.016553 0.282803 4.806191
v 0.732690 0.318853 -0.249973
v 0.732690 0.451104 -0.066545
v 0.732690 0.346094 0.428130
v 0.732690 0.123447 0.676288
v 0.732690 -0.000000 0.361198
v 0.732690 0.101788 -0.148315
v -0.888528 0.318853 -0.249973
v -0.888528 0.451104 -0.066545
v -0.888528 0.346094 0.428130
v -0.888528 0.123447 0.676289
v -0.888528 -0.000000 0.361198
v -0.888528 0.101788 -0.148315
v 0.888528 0.318853 -0.249973
v 0.888528 0.451104 -0.066545
v 0.888528 0.346094 0.428130
v 0.888528 0.123447 0.676288
v 0.888528 -0.000000 0.361198
v 0.888528 0.101788 -0.148315
v -0.022090 0.114824 4.711104
v -0.022090 0.188892 4.775613
v -0.022090 0.168768 4.876093
v -0.022090 0.074576 4.912065
v -0.022090 -0.000000 4.847557
v -0.022090 0.020632 4.747077
v -0.732689 0.211948 -0.002872
v -0.732689 0.233438 0.015845
v -0.732689 0.227599 0.044997
v -0.732689 0.200271 0.055434
v -0.732689 0.178781 0.036718
v -0.732689 0.184620 0.007565
v 0.732690 0.211948 -0.002872
v 0.732690 0.233438 0.015844
v 0.732690 0.227599 0.044997
v 0.732690 0.200271 0.055434
v 0.732690 0.178781 0.036718
v 0.732690 0.184620 0.007565
v -0.281527 0.556949 0.045165
v -0.307550 0.554029 0.059742
v -0.307550 0.502178 0.318644
v -0.281527 0.499259 0.333221
v -0.255504 0.502178 0.318644
v -0.255504 0.554030 0.059742
v 0.281527 0.556949 0.045165
v 0.307550 0.554029 0.059741
v 0.307550 0.502178 0.318644
v 0.281527 0.499259 0.333221
v 0.255504 0.502178 0.318644
v 0.255504 0.554029 0.059741
v 0.000000 0.537545 0.056946
v 0.000000 0.485694 0.315848
v 0.000001 0.586964 -0.291016
v 0.022091 0.114824 4.711104
v 0.022091 0.188892 4.775613
v 0.022091 0.168768 4.876093
v 0.022091 0.074576 4.912065
v 0.022091 -0.000000 4.847557
v 0.022091 0.020632 4.747077
v -0.022090 0.289283 4.667307
v -0.022090 0.294809 4.565495
v 0.022091 0.289283 4.667307
v 0.022091 0.294809 4.565495
vn -0.120800 0.957100 0.263300
vn 0.110500 -0.959900 -0.257700
vn 0.006600 0.990100 0.140300
vn -0.006600 0.990100 0.140300
vn 0.021800 -0.992300 -0.121800
vn -0.019100 0.991700 0.126800
vn -0.170300 0.930800 0.323300
vn -0.110500 -0.959900 -0.257700
vn 0.070300 0.995700 0.060500
vn 0.004800 -0.991700 -0.128200
vn 0.019100 0.991700 0.126800
vn -0.999800 0.011900 0.016900
vn 0.321100 -0.857700 0.401600
vn -0.426800 0.646300 -0.632600
vn -0.348900 -0.334400 -0.875500
vn 0.639500 0.274300 0.718200
vn 0.409200 -0.413700 -0.813300
vn -0.639500 0.274300 0.718200
vn 0.000400 -0.656800 0.754100
vn 0.385200 0.606100 -0.695900
vn -1.000000 0.000000 0.000000
vn 1.000000 -0.000000 -0.000000
vn -0.004800 -0.991700 -0.128200
vn 0.999600 0.024100 0.013300
vn 0.615300 -0.772900 -0.154800
vn -0.999600 0.024100 0.013300
vn 0.170300 0.930800 0.323300
vn -0.156200 -0.936800 -0.313200
vn -0.070300 0.995700 0.060500
vn 0.085300 -0.995700 -0.035600
vn 0.000000 -0.167200 0.985900
vn -0.000000 0.167200 -0.985900
vn -0.604900 0.780800 0.156400
vn 0.120800 0.957100 0.263300
vn 0.156200 -0.936800 -0.313200
vn -0.085300 -0.995700 -0.035600
vn 0.000000 -0.965900 -0.259100
vn -0.000000 0.964300 0.264900
vn -0.021800 -0.992300 -0.121800
vn -0.000400 -0.656800 0.754100
vn -0.385200 0.606100 -0.695900
vn -0.615300 -0.772900 -0.154800
vn -0.409200 -0.413700 -0.813300
vn 0.604900 0.780800 0.156400
vn 0.493100 -0.062200 0.867800
vn 0.348900 -0.334400 -0.875500
vn -0.493100 -0.062200 0.867800
vn -0.321100 -0.857700 0.401600
vn 0.426800 0.646300 -0.632600
vn 0.000000 0.733400 0.679800
vn 0.000000 -0.629000 -0.777400
vn 0.999800 0.011900 0.016900
vn -0.663500 0.130400 -0.736700
vn -0.461400 0.604100 -0.649600
vn -0.456300 -0.338400 -0.823000
vn -0.315800 -0.486300 -0.814700
vn -0.850900 0.001400 -0.525300
vn -0.785500 0.344600 -0.513900
vn -0.604200 0.787900 0.118700
vn -0.478000 0.865200 -0.151500
vn -0.624300 -0.625800 -0.467500
vn -0.974800 0.222800 0.007100
vn 0.461800 0.222700 -0.858500
vn 0.788500 0.541200 -0.292100
vn 0.000000 0.765100 -0.643900
vn 0.000000 0.958800 -0.284200
vn -0.999300 0.003200 -0.037200
vn -0.788500 0.541200 -0.292100
vn -0.995100 0.048800 -0.085400
vn -0.673700 -0.719400 -0.169200
vn -0.001600 -0.953700 -0.300600
vn -0.673600 -0.731600 -0.105000
vn 0.648900 -0.757900 0.066900
vn 0.763200 -0.264500 0.589500
vn 0.653300 0.674900 0.343000
vn 0.556700 -0.147800 0.817400
vn -0.709400 0.682000 -0.177500
vn -0.703900 -0.146000 0.695100
vn -0.461800 0.222700 -0.858500
vn -0.756800 0.606300 0.244000
vn -0.671900 0.727600 -0.138200
vn 0.000000 0.994700 0.103000
vn -0.616700 0.765300 0.184400
vn -0.668500 -0.039700 0.742600
vn 0.000000 -0.798500 -0.602000
vn -0.510200 -0.708200 -0.487900
vn 0.000000 -0.939600 -0.342200
vn -0.521200 0.833700 -0.182400
vn 0.000000 0.987300 0.158700
vn 0.000000 0.999100 0.041300
vn -0.343300 0.759500 -0.552400
vn -0.398700 0.449000 0.799600
vn 0.000000 0.910400 0.413600
vn 0.361200 0.493700 0.791000
vn -0.728700 -0.520400 0.445100
vn -0.870500 -0.243000 -0.428000
vn -0.258400 0.782800 -0.566000
vn -0.678000 0.728100 0.101100
vn 0.663500 0.130400 -0.736700
vn 0.456300 -0.338400 -0.823000
vn 0.461400 0.604100 -0.649600
vn 0.315800 -0.486300 -0.814700
vn 0.850900 0.001400 -0.525300
vn 0.624300 -0.625800 -0.467500
vn 0.785500 0.344600 -0.513900
vn 0.604200 0.787900 0.118700
vn 0.974800 0.222800 0.007100
vn 0.663700 -0.730200 -0.162300
vn 0.999300 0.003200 -0.037200
vn 0.995100 0.048800 -0.085400
vn 0.595000 -0.798900 0.087700
vn 0.733900 -0.679000 0.018800
vn 0.092400 -0.994700 -0.045600
vn 0.709400 0.682000 -0.177500
vn 0.703900 -0.146000 0.695100
vn 0.995100 -0.058200 0.080000
vn 0.756800 0.606300 0.244000
vn 0.671900 0.727600 -0.138200
vn 0.510200 -0.708200 -0.487900
vn 0.521200 0.833700 -0.182400
vn 0.478000 0.865200 -0.151500
vn 0.668500 -0.039700 0.742600
vn 0.616700 0.765300 0.184400
vn 0.984900 0.043200 0.167500
vn 0.678000 0.728100 0.101100
vn 0.870500 -0.243000 -0.428000
vn 0.343300 0.759500 -0.552400
vn 0.398700 0.449000 0.799600
vn 0.728700 -0.520400 0.445100
vn -0.361200 0.493700 0.791000
vn 0.258400 0.782800 -0.566000
vn 0.284800 -0.578600 -0.764200
vn 0.788600 0.104900 -0.605900
vn -0.984900 0.043200 0.167500
vn -0.646400 -0.762700 -0.018700
vn -0.485200 -0.873800 0.031400
vn -0.975500 -0.105200 0.193200
vn 0.485200 -0.873800 0.031400
vn 0.975500 -0.105200 0.193200
vn -0.587800 0.203300 -0.783000
vn -0.653300 0.674900 0.343000
vn -0.626300 0.762800 -0.160800
vn -0.648900 -0.757900 0.066900
vn -0.618300 -0.618500 -0.484900
vn 0.587800 0.203300 -0.783000
vn 0.626300 0.762800 -0.160800
vn 0.564900 0.643000 0.517100
vn 0.651900 0.683900 -0.327500
vn -0.933900 -0.352500 0.058600
vn 0.618300 -0.618500 -0.484900
vn 0.870100 -0.016400 -0.492600
vn 0.943000 -0.271300 -0.192900
vn -0.564900 0.643000 0.517100
vn 0.933900 -0.352500 0.058600
vn 0.666700 -0.727800 -0.160400
vn 0.546900 -0.510700 -0.663400
vn -0.546900 -0.510700 -0.663400
vn -0.663700 -0.730200 -0.162300
vn -0.476000 -0.794900 0.376200
vn 0.043800 -0.948300 -0.314400
vn 0.091800 -0.858300 -0.504900
vn -0.091800 -0.858300 -0.504900
vn 0.476000 -0.794900 0.376100
vn -0.043800 -0.948300 -0.314400
vn -0.132800 -0.979500 -0.151200
vn 0.132800 -0.979500 -0.151200
vn 0.182200 -0.951100 -0.249200
vn -0.182200 -0.951100 -0.249200
vn -0.748300 -0.626600 -0.217400
vn 0.613400 -0.746400 -0.258100
vn 0.698100 0.006500 0.715900
vn -0.698100 0.006500 0.715900
vn 0.000000 -0.517200 -0.855900
vn 0.000000 0.989600 0.143900
vn 0.000000 -0.801900 -0.597400
vn 0.000000 0.787800 -0.615900
vn -0.995100 -0.058200 0.080000
vn -0.649000 -0.759200 0.048600
vn 0.649000 -0.759200 0.048600
vn 0.984500 -0.038500 0.171100
vn 0.731300 0.606000 0.312800
vn 0.000000 0.927900 0.372800
vn 0.000000 -0.977000 -0.213000
vn 0.000000 -0.988100 -0.153900
vn -0.788600 0.104900 -0.605900
vn 0.686300 0.633600 -0.357100
vn 0.670400 -0.586900 -0.454000
vn 0.000000 0.942100 -0.335300
vn 0.674500 -0.731300 -0.100900
vn 0.700600 -0.713200 0.022700
vn 0.770400 0.545200 0.330500
vn 0.392000 -0.742200 0.543500
vn -0.620700 -0.779700 0.081900
vn 0.668400 0.741400 -0.059500
vn 0.766500 -0.498200 -0.405200
vn 0.341000 -0.454300 -0.822900
vn -0.681100 0.501100 -0.533800
vn -0.611100 0.766800 -0.196400
vn 0.611100 0.766800 -0.196400
vn 0.681100 0.501100 -0.533800
vn 0.540800 0.662100 -0.518800
vn 0.000000 0.876000 -0.482300
vn 0.000000 0.646300 0.763100
vn 0.537300 0.436700 0.721400
vn 0.778800 0.110700 -0.617400
vn 0.778800 -0.110700 0.617400
vn 0.608200 -0.624900 0.489400
vn 0.613800 0.535400 0.580100
vn 0.000000 -0.735400 0.677600
vn 0.000000 -0.445900 -0.895100
vn -0.405100 -0.282500 -0.869500
vn -0.420600 -0.558800 0.714700
vn 0.000000 0.735400 -0.677600
vn 0.000000 0.445900 0.895100
vn -0.405100 0.282500 0.869500
vn -0.420600 0.558800 -0.714700
vn -0.731300 0.606000 0.312800
vn -0.537300 -0.436700 -0.721400
vn -0.540800 -0.662100 0.518800
vn -0.778800 -0.110700 0.617400
vn -0.778800 0.110700 -0.617400
vn -0.540800 0.662100 -0.518800
vn -0.537300 0.436700 0.721400
vn -0.587800 0.130900 -0.798300
vn -0.587800 -0.130900 0.798300
vn -0.341000 -0.454300 -0.822900
vn -0.392000 -0.742200 0.543500
vn -0.289700 -0.701300 0.651300
vn -0.579200 0.526000 0.622700
vn 0.579200 0.526000 0.622700
vn 0.289700 -0.701300 0.651300
vn -0.284800 -0.578600 -0.764200
vn -0.686300 0.633600 -0.357100
vn -0.670400 -0.586900 -0.454000
vn -0.984500 -0.038500 0.171100
vn 0.000000 -0.646300 -0.763100
vn 0.000000 -0.876000 0.482300
vn -0.479200 -0.648700 0.591200
vn 0.587800 -0.130900 0.798300
vn 0.405100 0.282500 0.869500
vn 0.420600 0.558800 -0.714700
vn 0.587800 0.130900 -0.798300
vn -0.770400 0.545200 0.330500
vn -0.668400 0.741400 -0.059400
vn -0.766500 -0.498200 -0.405200
vn -0.700600 -0.713200 0.022700
vn -0.608200 -0.624900 0.489400
vn -0.613800 0.535400 0.580100
vn 0.537300 -0.436700 -0.721400
vn 0.540800 -0.662100 0.518800
vn 0.420600 -0.558800 0.714700
vn 0.405100 -0.282500 -0.869500
vn 0.479200 -0.648700 0.591200
vn -0.556700 -0.147800 0.817400
vn 0.000000 -0.948900 -0.315400
vn 0.613200 -0.602000 -0.511400
vn -0.613200 -0.602000 -0.511400
vn -0.744200 -0.333300 -0.578800
vn 0.744200 -0.333300 -0.578800
vn 0.607800 -0.137600 0.782100
vn -0.607800 -0.137600 0.782100
vn -0.609100 -0.750900 0.255200
vn 0.609100 -0.750900 0.255200
vn -0.870100 -0.016400 -0.492600
vn -0.651900 0.683900 -0.327500
vn -0.943000 -0.271300 -0.192900
vn -0.763200 -0.264500 0.589500
vn 0.773600 0.564200 0.288400
vn -0.773600 0.564200 0.288400
vn -0.612800 0.603400 0.510100
vn 0.612800 0.603400 0.510100
usemtl None
s off
f 46//1 51//1 47//1
f 48//2 45//2 44//2
f 107//3 164//3 139//3 162//3
f 72//4 28//4 70//4 55//4
f 29//5 71//5 53//5
f 70//6 28//6 52//6
f 130//7 135//7 134//7
f 129//8 132//8 128//8
f 162//9 139//9 140//9
f 29//10 73//10 54//10 71//10
f 107//11 162//11 136//11
f 120//12 36//12 37//12 166//12
f 198//13 211//13 210//13
f 195//14 208//14 207//14
f 206//15 213//15 201//15
f 215//16 204//16 203//16
f 200//17 207//17 212//17
f 198//18 209//18 197//18
f 204//19 217//19 205//19
f 201//20 214//20 202//20
f 192//21 194//21 193//21
f 227//22 225//22 226//22
f 224//22 222//22 223//22
f 189//21 191//21 190//21
f 189//21 228//21 229//21
f 222//22 230//22 223//22
f 108//23 163//23 138//23 165//23
f 74//24 38//24 121//24 122//24
f 212//25 211//25 199//25 200//25
f 166//26 40//26 39//26 120//26
f 46//27 50//27 51//27
f 48//28 49//28 45//28
f 70//29 56//29 55//29
f 54//30 57//30 71//30
f 60//31 66//31 69//31 59//31
f 143//31 157//31 156//31 142//31
f 149//32 161//32 153//32 147//32
f 148//32 150//32 154//32 158//32
f 65//32 64//32 61//32 63//32
f 151//32 148//32 158//32 159//32
f 67//31 157//31 143//31 58//31
f 145//31 144//31 160//31 155//31
f 142//31 156//31 160//31 144//31
f 151//32 159//32 68//32 62//32
f 208//33 196//33 197//33 209//33
f 130//34 131//34 135//34
f 129//35 133//35 132//35
f 163//36 141//36 138//36
f 62//32 68//32 65//32 63//32
f 146//31 152//31 66//31 60//31
f 64//32 161//32 149//32 61//32
f 69//31 67//31 58//31 59//31
f 146//31 145//31 155//31 152//31
f 147//32 153//32 154//32 150//32
f 45//37 24//37 35//37 44//37
f 47//38 115//38 101//38 46//38
f 108//39 137//39 163//39
f 192//21 191//21 189//21 194//21
f 198//40 199//40 211//40
f 195//41 196//41 208//41
f 218//42 206//42 205//42 217//42
f 206//43 218//43 213//43
f 203//44 202//44 214//44 215//44
f 215//45 216//45 204//45
f 200//46 195//46 207//46
f 198//47 210//47 209//47
f 204//48 216//48 217//48
f 201//49 213//49 214//49
f 101//38 115//38 131//38 130//38
f 228//50 190//50 223//50 230//50
f 231//51 222//51 189//51 229//51
f 224//22 225//22 227//22 222//22
f 117//37 100//37 129//37 128//37
f 189//21 190//21 228//21
f 222//22 231//22 230//22
f 38//52 74//52 119//52 118//52
s 1
f 12//53 11//54 13//55
f 41//56 15//57 42//58
f 42//58 14//59 43//60
f 16//61 18//62 15//57
f 100//63 110//64 113//65 101//66
f 23//67 31//68 32//69
f 30//70 111//71 7//72
f 5//73 198//74 3//75 4//76
f 32//69 17//77 18//62
f 23//67 35//78 24//79
f 25//80 36//81 102//82
f 28//83 37//84 36//81
f 127//85 10//86 80//87
f 8//88 126//89 76//90
f 24//79 46//91 101//66
f 47//92 35//78 115//93
f 72//94 29//95 28//83
f 53//96 70//97 52//98
f 83//99 84//100 82//101
f 123//102 88//103 89//104
f 124//105 87//106 88//103
f 89//104 93//107 94//108
f 110//64 99//109 112//110
f 98//111 105//112 106//113
f 92//114 112//110 93//107
f 99//109 117//115 114//116
f 103//117 102//82 118//118
f 79//119 127//85 80//87
f 77//120 126//89 125//121
f 118//118 119//122 107//123
f 104//124 136//125 137//126
f 130//127 100//63 101//66
f 117//115 131//128 115//93
f 108//129 164//130 107//123
f 137//126 162//131 163//132
f 36//81 52//98 28//83
f 136//125 118//118 107//123
f 123//102 79//119 78//133 124//105
f 26//134 52//98 36//81 25//80
f 104//124 137//126 105//112
f 26//134 27//135 53//96
f 107//123 119//122 108//129
f 28//83 29//95 37//84
f 169//136 29//95 228//137
f 170//138 230//139 108//129
f 108//129 105//112 137//126
f 29//95 53//96 27//135
f 177//140 179//141 178//142
f 181//143 177//140 182//144
f 185//75 183//145 184//146
f 187//73 183//145 186//76
f 2//146 197//147 196//148
f 205//149 176//144 175//143
f 6//150 195//151 200//152
f 172//142 203//153 173//141
f 3//75 198//74 197//147
f 104//124 103//117 118//118 136//125
f 6//150 199//154 5//73
f 109//155 214//156 94//108
f 208//157 30//70 19//158
f 209//159 210//160 30//70
f 208//157 19//158 207//161
f 214//156 213//162 94//108
f 215//163 109//155 216//164
f 109//155 111//71 216//164
f 30//70 210//160 111//71
f 111//71 217//165 216//164
f 211//166 111//71 210//160
f 212//167 207//161 19//158
f 218//168 94//108 213//162
f 29//95 229//169 228//137
f 108//129 231//170 105//112
f 105//112 231//170 106//113
f 36//81 118//118 102//82
f 74//171 166//172 37//84 119//122
f 93//107 88//103 87//106 92//114
f 84//100 79//119 80//87 85//173
f 84//100 83//99 78//133 79//119
f 41//56 16//61 15//57
f 86//174 87//106 125//121 126//89
f 90//175 127//85 123//102 89//104
f 42//58 15//57 14//59
f 82//101 81//176 76//90 77//120
f 16//61 19//158 18//62
f 33//177 23//67 7//72 34//178
f 98//111 116//179 114//116 97//180
f 96//181 117//115 115//93 95//182
f 96//181 97//180 114//116 117//115
f 23//67 24//79 31//68
f 221//183 219//184 212//167 19//158
f 13//55 10//86 9//185 12//53
f 103//117 96//181 95//182 102//82
f 103//117 104//124 97//180 96//181
f 140//186 141//187 163//132 162//131
f 110//64 92//114 91//188 113//65
f 32//69 31//68 17//77
f 23//67 33//177 35//78
f 114//116 116//179 75//189 99//109
f 7//72 75//189 116//179 34//178
f 169//136 228//137 230//139 170//138
f 125//121 124//105 78//133 77//120
f 127//85 41//56 10//86
f 8//88 43//60 126//89
f 43//60 8//88 9//185 42//58
f 132//190 135//191 131//128 128//192
f 22//193 34//178 116//179 98//111
f 134//194 133//195 129//196 130//127
f 26//134 53//96 52//98
f 120//197 39//198 121//199 38//200
f 92//114 87//106 86//174 91//188
f 148//201 151//202 143//203 142//204
f 150//205 148//201 142//204 144//206
f 138//207 141//187 140//186 139//208
f 157//209 159//210 158//211 156//212
f 161//213 152//214 155//215 153//216
f 95//182 20//217 25//80 102//82
f 61//218 60//219 59//220 63//221
f 62//222 58//223 143//203 151//202
f 154//224 160//225 156//212 158//211
f 24//79 45//226 46//91
f 47//92 44//227 35//78
f 139//208 164//130 165//228 138//207
f 40//229 122//230 121//199 39//198
f 72//94 73//231 29//95
f 53//96 71//232 70//97
f 56//233 70//97 71//232 57//234
f 80//87 10//86 13//55 85//173
f 12//53 9//185 8//88 11//54
f 83//99 82//101 77//120 78//133
f 81//176 82//101 84//100 85//173
f 123//102 124//105 88//103
f 124//105 125//121 87//106
f 14//59 15//57 18//62 17//77
f 89//104 88//103 93//107
f 86//174 14//59 17//77 91//188
f 2//146 195//151 6//150 1//145
f 112//110 109//155 94//108 93//107
f 22//193 98//111 106//113 27//135
f 110//64 100//63 99//109
f 113//65 31//68 24//79 101//66
f 23//67 32//69 30//70 7//72
f 26//134 21//235 22//193 27//135
f 135//191 132//190 133//195 134//194
f 104//124 105//112 98//111 97//180
f 231//170 229//169 27//135 106//113
f 32//69 18//62 19//158 30//70
f 41//56 127//85 90//175 16//61
f 92//114 110//64 112//110
f 99//109 100//63 117//115
f 149//236 146//237 60//219 61//218
f 25//80 20//217 21//235 26//134
f 20//217 35//78 33//177 21//235
f 36//81 120//197 38//200 118//118
f 167//238 37//84 29//95 169//136
f 79//119 123//102 127//85
f 77//120 76//90 126//89
f 9//185 10//86 41//56 42//58
f 69//239 66//240 64//241 65//242
f 221//183 90//175 89//104 94//108
f 51//243 50//244 49//245 48//246
f 48//246 44//227 47//92 51//243
f 56//233 57//234 54//247 55//248
f 13//55 11//54 81//176 85//173
f 73//231 72//94 55//248 54//247
f 86//174 126//89 43//60 14//59
f 166//172 74//171 122//230 40//229
f 160//225 154//224 153//216 155//215
f 147//249 150//205 144//206 145//250
f 161//213 64//241 66//240 152//214
f 111//71 109//155 75//189 7//72
f 157//209 67//251 68//252 159//210
f 11//54 8//88 76//90 81//176
f 67//251 69//239 65//242 68//252
f 149//236 147//249 145//250 146//237
f 63//221 59//220 58//223 62//222
f 130//127 129//196 100//63
f 117//115 128//192 131//128
f 108//129 165//228 164//130
f 137//126 136//125 162//131
f 115//93 35//78 20//217 95//182
f 170//138 168//253 167//238 169//136
f 183//145 171//140 172//142 184//146
f 108//129 119//122 168//253 170//138
f 182//144 177//140 1//145 6//150
f 175//143 176//144 188//150 187//73
f 172//142 173//141 185//75 184//146
f 173//141 174//254 186//76 185//75
f 182//144 6//150 5//73 181//143
f 180//254 181//143 5//73 4//76
f 219//184 220//255 211//166 212//167
f 174//254 175//143 187//73 186//76
f 178//142 2//146 1//145 177//140
f 231//170 229//169 228//137 230//139
f 227//256 194//257 189//258 222//259
f 225//260 192//261 193//262 226//263
f 177//140 180//254 179//141
f 181//143 180//254 177//140
f 185//75 186//76 183//145
f 187//73 188//150 183//145
f 201//264 202//265 172//142
f 2//146 3//75 197//147
f 205//149 206//266 176//144
f 176//144 201//264 172//142 171//140
f 172//142 202//265 203//153
f 204//267 175//143 174//254 173//141
f 176//144 206//266 201//264
f 173//141 203//153 204//267
f 5//73 199//154 198//74
f 2//146 196//148 195//151
f 204//267 205//149 175//143
f 6//150 200//152 199//154
f 91//188 17//77 31//68 113//65
f 99//109 75//189 109//155 112//110
f 109//155 215//163 214//156
f 208//157 209//159 30//70
f 217//165 220//255 219//184 218//168
f 111//71 220//255 217//165
f 211//166 220//255 111//71
f 16//61 90//175 221//183 19//158
f 33//177 34//178 22//193 21//235
f 221//183 94//108 218//168 219//184
f 223//268 190//269 191//270 224//271
f 224//271 191//270 192//261 225//260
f 168//253 119//122 37//84 167//238
f 226//263 193//262 194//257 227//256
f 176//144 171//140 183//145 188//150
f 180//254 4//76 3//75 179//141
f 29//95 27//135 229//169
f 108//129 230//139 231//170
f 50//244 46//91 45//226 49//245
f 179//141 3//75 2//146 178//142
